<svg data-id="lg_Bh9nZVKhj6vEn6YBov" data-version="1" viewBox="744 0 530 132.953125" xml:space="preserve" xmlns="http://www.w3.org/2000/svg" style="max-height: 500px" width="530" height="132.953125"><g transform="matrix(1,0,0,1,0,0)" data-padding="20" id="outer-wrapper"><g transform="matrix(0.9599198396793587,0,0,0.9599198396793587,10,2.5450901803607238)" id="inner-wrapper"><rect transform="translate(438.63 404.37)" ry="0" rx="0" fill="none" y="-350.79365269292816" x="433.11604280081025" height="73.45" width="409.159"/><path d="M905.7050428008104 110.22134730707188V89.68134730707186H882.7550428008104V110.22134730707188H877.2950428008104V64.85134730707188H882.7550428008104V84.87134730707186H905.7050428008104V64.85134730707188H911.1650428008104V110.22134730707188ZM950.9450428008104 110.22134730707188H923.2550428008104V64.85134730707188H950.9450428008104V69.66134730707188H928.7150428008104V84.87134730707186H949.6450428008104V89.68134730707186H928.7150428008104V105.41134730707188H950.9450428008104ZM985.9150428008104 110.22134730707188H961.1450428008104V64.85134730707188H966.6050428008105V105.41134730707188H985.9150428008104ZM1018.4650428008105 110.22134730707188H993.7050428008105V64.85134730707188H999.1650428008104V105.41134730707188H1018.4650428008105ZM1043.2350428008103 111.00134730707185Q1038.8150428008103 111.00134730707185 1035.2750428008105 109.47134730707188Q1031.7250428008103 107.94134730707191 1029.2250428008103 104.98134730707187Q1026.7250428008103 102.03134730707188 1025.3550428008105 97.6413473070719Q1023.9950428008104 93.25134730707191 1023.9950428008104 87.53134730707188T1025.3550428008105 77.46134730707189Q1026.7250428008103 73.10134730707188 1029.2250428008103 70.11134730707187T1035.2750428008105 65.59134730707189Q1038.8150428008105 64.0713473070719 1043.2350428008103 64.0713473070719Q1047.5850428008105 64.0713473070719 1051.1650428008104 65.59134730707189Q1054.7350428008103 67.12134730707186 1057.2450428008106 70.11134730707187Q1059.7450428008106 73.10134730707188 1061.1050428008105 77.46134730707189Q1062.4750428008106 81.81134730707191 1062.4750428008106 87.53134730707188T1061.1050428008105 97.6413473070719Q1059.7450428008106 102.03134730707188 1057.2450428008106 104.98134730707187Q1054.7350428008103 107.94134730707185 1051.1650428008104 109.47134730707188Q1047.5850428008105 111.00134730707185 1043.2350428008103 111.00134730707185M1043.2350428008103 106.12134730707186Q1046.1550428008104 106.12134730707186 1048.6250428008104 105.08134730707184T1052.8850428008104 102.09134730707183T1055.6450428008104 97.41134730707182Q1056.6250428008104 94.6813473070718 1056.6250428008104 91.30134730707181V83.76134730707179Q1056.6250428008104 80.38134730707179 1055.6450428008104 77.65134730707177Q1054.6750428008104 74.92134730707176 1052.8850428008104 72.97134730707177T1048.6250428008104 69.98134730707176T1043.2350428008103 68.94134730707174Q1040.3050428008105 68.94134730707174 1037.8350428008105 69.98134730707176T1033.5850428008105 72.97134730707177Q1031.7950428008105 74.92134730707176 1030.8150428008105 77.65134730707177Q1029.8450428008105 80.38134730707179 1029.8450428008105 83.76134730707179V91.30134730707181Q1029.8450428008105 94.6813473070718 1030.8150428008105 97.41134730707182Q1031.7950428008105 100.14134730707184 1033.5850428008105 102.09134730707183Q1035.3650428008104 104.04134730707182 1037.8350428008105 105.08134730707184T1043.2350428008103 106.12134730707186M1088.3450428008105 110.22134730707188H1070.1450428008104V105.67134730707187H1076.5150428008105V69.40134730707189H1070.1450428008104V64.85134730707188H1088.3450428008105V69.40134730707189H1081.9750428008106V105.67134730707187H1088.3450428008105ZM1098.2850428008105 110.22134730707188V64.85134730707188H1116.9450428008104Q1122.5950428008105 64.85134730707188 1125.8150428008105 68.03134730707188Q1129.0350428008105 71.22134730707188 1129.0350428008105 76.55134730707186Q1129.0350428008105 79.08134730707184 1128.3150428008105 80.84134730707189Q1127.6050428008105 82.59134730707189 1126.4950428008106 83.73134730707187Q1125.3950428008104 84.87134730707186 1124.0950428008105 85.42134730707187T1121.6850428008106 86.17134730707187V86.56134730707186Q1122.9250428008104 86.62134730707186 1124.4550428008106 87.21134730707183Q1125.9750428008106 87.79134730707182 1127.3450428008105 89.06134730707186Q1128.7050428008106 90.33134730707184 1129.6550428008104 92.31134730707186Q1130.5950428008105 94.29134730707187 1130.5950428008105 97.09134730707183Q1130.5950428008105 99.88134730707185 1129.7150428008104 102.29134730707182Q1128.8350428008105 104.6913473070718 1127.2750428008103 106.45134730707184Q1125.7150428008104 108.20134730707184 1123.5750428008105 109.21134730707183Q1121.4250428008104 110.22134730707182 1118.8950428008104 110.22134730707182ZM1103.7450428008106 89.16134730707188V105.41134730707188H1117.2050428008104Q1120.7150428008104 105.41134730707188 1122.7250428008103 103.62134730707186Q1124.7450428008103 101.83134730707184 1124.7450428008103 98.39134730707184V96.18134730707186Q1124.7450428008103 92.73134730707187 1122.7250428008103 90.94134730707185Q1120.7150428008104 89.16134730707188 1117.2050428008104 89.16134730707188ZM1103.7450428008106 69.66134730707188V84.48134730707187H1116.2950428008103Q1119.5450428008103 84.48134730707187 1121.3650428008104 82.85134730707188Q1123.1850428008104 81.23134730707187 1123.1850428008104 78.17134730707187V75.96134730707189Q1123.1850428008104 72.91134730707188 1121.3650428008104 71.28134730707188Q1119.5450428008103 69.66134730707188 1116.2950428008103 69.66134730707188ZM1168.4350428008104 110.22134730707188H1140.7450428008106V64.85134730707188H1168.4350428008104V69.66134730707188H1146.2050428008104V84.87134730707186H1167.1350428008104V89.68134730707186H1146.2050428008104V105.41134730707188H1168.4350428008102ZM1181.4250428008104 111.00134730707185Q1179.3450428008105 111.00134730707185 1178.4050428008104 109.96134730707183Q1177.4550428008104 108.92134730707181 1177.4550428008104 107.23134730707181V106.38134730707179Q1177.4550428008104 104.6913473070718 1178.4050428008104 103.65134730707177Q1179.3450428008105 102.61134730707175 1181.4250428008104 102.61134730707175T1184.4450428008104 103.65134730707177T1185.3850428008104 106.38134730707179V107.23134730707181Q1185.3850428008104 108.92134730707181 1184.4450428008104 109.96134730707183T1181.4250428008104 111.00134730707185M1231.6750428008104 110.22134730707188V72.00134730707191H1231.3550428008102L1227.5150428008103 79.60134730707193L1216.6650428008102 99.36134730707192L1205.8050428008103 79.60134730707193L1201.9750428008101 72.00134730707191H1201.6450428008102V110.22134730707194H1196.3150428008103V64.85134730707193H1203.59504280081L1216.59504280081 89.29134730707193H1216.9250428008102L1229.98504280081 64.85134730707193H1237.00504280081V110.22134730707194ZM1276.7750428008103 110.22134730707188H1249.0850428008102V64.85134730707188H1276.7750428008103V69.66134730707188H1254.5450428008103V84.87134730707186H1275.4750428008103V89.68134730707186H1254.5450428008103V105.41134730707188H1276.7750428008103Z" fill="#bfd7b7"/><path d="M783.7760428008104 20.122347307071834A1.53 1.53 0 0 0 784.8980428008103 19.66334730707183A24.74 24.74 0 0 1 805.5020428008104 11.223347307071833A1.536 1.536 0 0 0 805.7830428008104 8.163347307071831A27.8 27.8 0 0 0 782.7050428008104 17.521347307071835A1.53 1.53 0 0 0 783.7760428008104 20.122347307071834M804.0750428008105 18.414347307071807A1.53 1.53 0 0 0 802.3660428008104 17.088347307071786A27.8 27.8 0 0 0 781.9150428008104 31.342347307071805A1.53 1.53 0 0 0 784.5160428008104 32.92334730707182A24.74 24.74 0 0 1 802.7480428008105 20.122347307071834A1.53 1.53 0 0 0 804.0740428008104 18.414347307071807M865.3250428008105 35.57534730707181A9.84 9.84 0 0 0 855.5080428008105 42.51134730707179A18.36 18.36 0 0 1 850.2810428008104 52.55834730707181H850.2290428008105C848.0870428008104 52.201347307071785 848.7510428008104 46.20834730707179 849.0050428008104 43.939347307071785L849.1590428008104 42.4603473070718C849.2600428008104 41.05734730707178 851.7590428008104 24.66134730707182 853.4170428008105 13.977347307071796A6.9 6.9 0 0 0 852.2950428008104 9.030347307071793A6.38 6.38 0 0 0 848.1640428008104 6.378347307071806A5.87 5.87 0 0 0 843.5740428008104 7.3473473070718A6.9 6.9 0 0 0 840.7180428008104 11.860347307071777L839.9530428008104 16.858347307071767L840.4120428008105 6.326347307071785A6.273 6.273 0 0 0 834.2410428008104 0.0033473070718059716A6.12 6.12 0 0 0 827.5340428008104 5.663347307071831L827.3810428008105 8.978347307071829A5.1 5.1 0 0 0 825.6980428008105 5.612347307071843A6.9 6.9 0 0 0 821.3640428008105 3.7773473070718637A6.503 6.503 0 0 0 814.5290428008104 9.514347307071887L815.4730428008104 41.28734730707191A58.7 58.7 0 0 1 814.4530428008104 31.34234730707192Q814.7080428008104 24.304347307071907 810.1690428008104 23.641347307071896A5.865 5.865 0 0 0 803.4370428008104 28.333347307071904C801.8560428008104 38.22734730707191 804.2790428008104 67.52734730707192 808.6900428008105 73.2903473070719A17.85 17.85 0 0 1 811.5970428008104 85.6823473070719H808.4610428008104C807.5450428008105 85.6823473070719 806.8030428008105 86.42534730707189 806.8030428008105 87.34034730707191V106.87334730707192A1.657 1.657 0 1 0 810.1180428008105 106.87334730707192V88.99734730707195H846.2010428008105V106.87334730707192A1.657 1.657 0 1 0 849.5150428008105 106.87334730707192V87.34034730707191C849.5150428008105 86.42534730707189 848.7730428008105 85.6823473070719 847.8580428008105 85.6823473070719H843.9570428008104L844.1860428008105 80.4803473070719A66.3 66.3 0 0 1 854.5900428008105 72.01434730707189C860.8880428008105 67.8073473070719 864.8150428008105 62.55434730707191 867.5440428008105 46.718347307071895Q867.7480428008105 45.444347307071894 868.0540428008105 44.09234730707192C868.6910428008105 41.312347307071946 869.2780428008105 38.7373473070719 868.0030428008105 36.97734730707191A3.57 3.57 0 0 0 865.3250428008105 35.57534730707192M865.0700428008105 43.4033473070719L864.5350428008105 46.208347307071904C861.7300428008105 62.4273473070719 857.7770428008105 66.2013473070719 852.9070428008105 69.4393473070719C852.8050428008105 69.51534730707192 841.2530428008105 77.42034730707189 841.1520428008105 80.07234730707188L840.8970428008105 85.6823473070719H814.6830428008105A20.4 20.4 0 0 0 811.1130428008105 71.40234730707192C807.4920428008105 66.68534730707194 804.8910428008105 38.68634730707191 806.4460428008106 28.81734730707194A2.805 2.805 0 0 1 809.7610428008105 26.701347307071956C810.2710428008105 26.752347307071943 811.5710428008106 26.95634730707195 811.4180428008106 31.316347307071965C811.8780428008106 47.356347307071985 815.6770428008106 49.574347307071946 816.7990428008105 49.880347307071986A1.53 1.53 0 0 0 818.7370428008105 48.35034730707201L817.5890428008105 9.590347307072022A3.44 3.44 0 0 1 821.1590428008105 6.836347307072003A3.83 3.83 0 0 1 823.5820428008105 7.856347307071985A2.55 2.55 0 0 1 824.3470428008105 9.769347307071996L825.8010428008105 44.04134730707199A1.53 1.53 0 0 0 828.8610428008105 44.04134730707199L830.5950428008105 5.791347307071987A3.417 3.417 0 0 1 837.3520428008105 6.173347307071992L835.6440428008106 44.908347307072006A1.536 1.536 0 0 0 838.7040428008105 45.18834730707198L843.7020428008105 12.344347307071985A3.83 3.83 0 0 1 845.2820428008106 9.845347307071961A3.06 3.06 0 0 1 847.5780428008105 9.386347307071958A3.32 3.32 0 0 1 849.7450428008106 10.763347307071967C850.2860428008105 11.563347307071979 850.5050428008105 12.538347307071945 850.3570428008105 13.492347307071952C849.9230428008105 16.22034730707196 846.2010428008105 40.26734730707193 846.0730428008105 42.25634730707196L845.9460428008106 43.582347307071984A23 23 0 0 0 846.0730428008105 52.02234730707198A8.67 8.67 0 0 0 840.2850428008105 53.75634730707196A1.535 1.535 0 0 0 842.3250428008105 56.052347307071955C844.0590428008105 54.52234730707198 848.2920428008106 55.21034730707197 849.6690428008105 55.542347307071964L849.8470428008105 55.592347307071975H850.3060428008105C853.6460428008105 55.312347307072 857.5480428008104 48.09534730707196 858.4660428008106 43.09734730707197A6.885 6.885 0 0 1 865.0200428008105 38.63534730707198C865.1470428008105 38.63534730707198 865.4280428008105 38.68634730707197 865.5300428008105 38.788347307072C865.9630428008105 39.400347307072025 865.4280428008105 41.82234730707199 865.0700428008105 43.42934730707202" stroke-width="2.55" stroke="#bfd7b7" fill="#bfd7b7"/></g><rect stroke="transparent" fill="transparent" id="space-saver" y="0" x="750.5" height="127" width="499"/></g></svg>